<svg width="347" height="264" viewBox="0 0 347 264" fill="none" xmlns="http://www.w3.org/2000/svg">
<path d="M31.7817 0.746315C30.8132 -0.237714 29.2303 -0.250276 28.2463 0.718256L12.2107 16.5014C11.2266 17.4699 11.2141 19.0528 12.1826 20.0368C13.1511 21.0208 14.734 21.0334 15.718 20.0649L29.9719 6.03542L44.0014 20.2893C44.9699 21.2734 46.5528 21.2859 47.5368 20.3174C48.5208 19.3489 48.5334 17.766 47.5649 16.782L31.7817 0.746315ZM28 254.5L30.4999 254.52L32.4999 2.51984L30 2.5L27.5001 2.48016L25.5001 254.48L28 254.5Z" fill="black"/>
<path d="M345.768 234.268C346.744 233.291 346.744 231.709 345.768 230.732L329.858 214.822C328.882 213.846 327.299 213.846 326.322 214.822C325.346 215.799 325.346 217.382 326.322 218.358L340.464 232.5L326.322 246.642C325.346 247.618 325.346 249.201 326.322 250.178C327.299 251.154 328.882 251.154 329.858 250.178L345.768 234.268ZM0 232.5L0 235H344V232.5V230H0L0 232.5Z" fill="black"/>
<path d="M154.92 247.94H156.92C157.773 247.94 158.493 248.027 159.08 248.2C159.667 248.373 160.107 248.647 160.4 249.02C160.707 249.38 160.86 249.86 160.86 250.46C160.86 251.007 160.727 251.46 160.46 251.82C160.207 252.18 159.827 252.46 159.32 252.66C158.813 252.847 158.173 252.973 157.4 253.04L157.48 252.88C158.08 252.88 158.613 252.933 159.08 253.04C159.547 253.147 159.947 253.313 160.28 253.54C160.627 253.767 160.887 254.053 161.06 254.4C161.247 254.733 161.34 255.147 161.34 255.64C161.34 256.6 160.967 257.32 160.22 257.8C159.487 258.267 158.333 258.5 156.76 258.5H151.76V257.64L153.5 257.26L153.32 257.48V249.04L153.48 249.22L151.76 248.86V248L154.92 247.94ZM156.6 249.04H154.64L154.92 248.76V252.78L154.64 252.54H156.1C157.22 252.54 158.027 252.387 158.52 252.08C159.013 251.773 159.26 251.313 159.26 250.7C159.26 250.1 159.04 249.673 158.6 249.42C158.16 249.167 157.493 249.04 156.6 249.04ZM156.58 257.38C157.66 257.38 158.44 257.233 158.92 256.94C159.413 256.647 159.66 256.16 159.66 255.48C159.66 254.827 159.44 254.327 159 253.98C158.573 253.633 157.9 253.46 156.98 253.46H154.64L154.92 253.2V257.64L154.64 257.38H156.58ZM162.653 263.1V262.24L164.473 261.82L164.213 262.12V248.98L164.453 249.24L162.653 248.86V248L165.453 247.86L165.653 249.6L165.473 249.48C166.087 248.907 166.7 248.48 167.313 248.2C167.927 247.907 168.533 247.76 169.133 247.76C169.88 247.76 170.547 247.967 171.133 248.38C171.733 248.793 172.207 249.393 172.553 250.18C172.9 250.953 173.073 251.907 173.073 253.04C173.073 254.267 172.86 255.3 172.433 256.14C172.02 256.98 171.433 257.62 170.673 258.06C169.913 258.487 169.02 258.7 167.993 258.7C167.62 258.7 167.233 258.667 166.833 258.6C166.433 258.533 166.013 258.447 165.573 258.34L165.813 258.12V262.12L165.593 261.84L167.653 262.24V263.1H162.653ZM167.813 257.5C168.987 257.5 169.88 257.12 170.493 256.36C171.107 255.6 171.413 254.547 171.413 253.2C171.413 252.32 171.287 251.567 171.033 250.94C170.793 250.313 170.46 249.833 170.033 249.5C169.607 249.153 169.12 248.98 168.573 248.98C168.107 248.98 167.62 249.107 167.113 249.36C166.62 249.6 166.12 249.973 165.613 250.48L165.813 249.98V257.48L165.593 257.12C166.407 257.373 167.147 257.5 167.813 257.5ZM179.547 258.68C178.654 258.68 177.861 258.48 177.167 258.08C176.487 257.667 175.954 257.067 175.567 256.28C175.181 255.493 174.987 254.533 174.987 253.4C174.987 252.24 175.187 251.24 175.587 250.4C175.987 249.56 176.554 248.913 177.287 248.46C178.021 247.993 178.881 247.76 179.867 247.76C180.801 247.76 181.567 247.96 182.167 248.36C182.781 248.747 183.234 249.287 183.527 249.98C183.834 250.673 183.987 251.467 183.987 252.36C183.987 252.507 183.981 252.653 183.967 252.8C183.954 252.947 183.934 253.127 183.907 253.34H176.207V252.2H182.507L182.327 252.32C182.341 251.72 182.267 251.167 182.107 250.66C181.947 250.153 181.674 249.747 181.287 249.44C180.901 249.133 180.387 248.98 179.747 248.98C179.067 248.98 178.494 249.16 178.027 249.52C177.561 249.88 177.214 250.373 176.987 251C176.761 251.627 176.647 252.353 176.647 253.18C176.647 254.06 176.774 254.82 177.027 255.46C177.281 256.087 177.647 256.573 178.127 256.92C178.621 257.267 179.221 257.44 179.927 257.44C180.421 257.44 180.961 257.347 181.547 257.16C182.134 256.96 182.741 256.66 183.367 256.26L183.947 257.16C183.201 257.667 182.454 258.047 181.707 258.3C180.961 258.553 180.241 258.68 179.547 258.68ZM188.284 249.26H188.564V257.62L188.364 257.26L190.064 257.64V258.5H185.724V257.64L187.524 257.24L187.284 257.62V248.84L187.584 249.26L185.724 248.84V248L189.084 247.88L192.844 255.7H192.164L195.984 248L199.324 247.88V248.72L197.464 249.22L197.744 248.78V257.6L197.524 257.24L199.324 257.64V258.5H194.864V257.64L196.564 257.26L196.324 257.54V249.22H196.604L192.824 256.82L192.024 256.88L188.284 249.26ZM200.243 258.5V257.64L201.963 257.26L201.643 257.54L202.603 255.28C202.803 254.813 203.063 254.48 203.383 254.28C203.703 254.08 204.103 253.96 204.583 253.92L204.723 254.06C203.723 254.02 202.943 253.76 202.383 253.28C201.836 252.8 201.563 252.08 201.563 251.12C201.563 250.4 201.716 249.807 202.023 249.34C202.343 248.873 202.783 248.527 203.343 248.3C203.916 248.06 204.59 247.94 205.363 247.94H210.363V248.8L208.583 249.22L208.803 249.02V257.52L208.623 257.26L210.363 257.64V258.5H205.703V257.64L207.383 257.28L207.203 257.54V254.1L207.383 254.28H205.903C205.436 254.28 205.05 254.38 204.743 254.58C204.45 254.767 204.203 255.107 204.003 255.6L202.863 258.5H200.243ZM207.203 253.46V248.82L207.423 249.02H205.523C204.83 249.02 204.256 249.18 203.803 249.5C203.363 249.807 203.143 250.347 203.143 251.12C203.143 251.907 203.363 252.46 203.803 252.78C204.256 253.1 204.936 253.26 205.843 253.26H207.383L207.203 253.46Z" fill="black"/>
<path d="M19.18 158.24C19.18 158.853 19.1067 159.467 18.96 160.08C18.8133 160.693 18.5933 161.26 18.3 161.78L17.26 161.4C17.5133 160.933 17.7133 160.433 17.86 159.9C17.9933 159.353 18.06 158.827 18.06 158.32C18.06 157.8 17.9867 157.32 17.84 156.88C17.6933 156.427 17.4667 156.067 17.16 155.8C16.8533 155.533 16.4533 155.4 15.96 155.4C15.5867 155.4 15.2533 155.493 14.96 155.68C14.6667 155.867 14.4333 156.18 14.26 156.62C14.0867 157.047 14 157.627 14 158.36L14 159.68L13 159.68L13 158.36C13 157.4 12.8333 156.7 12.5 156.26C12.1533 155.82 11.6933 155.6 11.12 155.6C10.48 155.6 10.0267 155.833 9.76 156.3C9.49333 156.753 9.36 157.327 9.36 158.02C9.36 158.407 9.39333 158.807 9.46 159.22C9.52667 159.633 9.61333 160.053 9.72 160.48L9.32 160.1L11.24 160.36L11.24 161.42L8.86 161.5C8.67333 160.86 8.52667 160.227 8.42 159.6C8.31333 158.96 8.26 158.347 8.26 157.76C8.26 157.053 8.35333 156.413 8.54 155.84C8.71333 155.267 9 154.82 9.4 154.5C9.78667 154.167 10.2933 154 10.92 154C11.6933 154 12.2933 154.253 12.72 154.76C13.1333 155.253 13.4 156.033 13.52 157.1L13.38 157.14C13.4333 155.953 13.7 155.093 14.18 154.56C14.6467 154.013 15.26 153.74 16.02 153.74C16.74 153.74 17.34 153.953 17.82 154.38C18.2867 154.807 18.6333 155.36 18.86 156.04C19.0733 156.72 19.18 157.453 19.18 158.24ZM19 152.131L18.14 152.131L17.7 150.231L18.22 150.571L9.26 150.571L9.78 150.151L9.34 152.131L8.5 152.131L8.38 147.451L9.22 147.451L9.72 149.351L9.24 148.971L13.32 148.971L12.88 149.411L12.88 143.091L13.32 143.551L9.26 143.551L9.7 143.271L9.34 145.071L8.5 145.071L8.38 140.371L9.22 140.371L9.72 142.291L9.24 141.951L18.22 141.951L17.7 142.291L18.14 140.371L19 140.371L19 145.071L18.14 145.071L17.74 143.251L18.22 143.551L13.64 143.551L14.08 143.091L14.08 149.411L13.64 148.971L18.22 148.971L17.74 149.271L18.14 147.451L19 147.451L19 152.131ZM18.1 130.668L17.74 130.928L18.1 129.088L18.98 129.088L19.1 131.888L17.18 132.128L17.24 131.988C17.88 132.575 18.3667 133.208 18.7 133.888C19.02 134.568 19.18 135.228 19.18 135.868C19.18 136.642 18.9333 137.295 18.44 137.828C17.9467 138.362 17.2 138.628 16.2 138.628C15.4133 138.628 14.8133 138.462 14.4 138.128C13.9733 137.795 13.6733 137.335 13.5 136.748C13.3267 136.162 13.24 135.482 13.24 134.708L13.24 132.088L13.44 132.268L11.52 132.268C10.7867 132.268 10.2667 132.462 9.96 132.848C9.64 133.235 9.48 133.768 9.48 134.448C9.48 134.808 9.52 135.195 9.6 135.608C9.66666 136.008 9.78 136.435 9.94 136.888L9.68 136.648L11.5 136.848L11.5 137.908L9.02 138.068C8.76667 137.308 8.58 136.595 8.46 135.928C8.32667 135.262 8.26 134.648 8.26 134.088C8.26 133.022 8.5 132.188 8.98 131.588C9.44666 130.975 10.2 130.668 11.24 130.668L18.1 130.668ZM16.06 137.008C16.7133 137.008 17.1933 136.855 17.5 136.548C17.8067 136.228 17.96 135.828 17.96 135.348C17.96 134.882 17.82 134.368 17.54 133.808C17.2467 133.235 16.8533 132.682 16.36 132.148L16.78 132.268L14.1 132.268L14.28 132.088L14.28 134.468C14.28 135.415 14.4267 136.075 14.72 136.448C15 136.822 15.4467 137.008 16.06 137.008ZM19 127.951L18.14 127.951L17.7 126.051L18.22 126.391L9.26 126.391L9.78 125.971L9.34 127.951L8.5 127.951L8.38 123.271L9.22 123.271L9.72 125.171L9.24 124.791L13.32 124.791L12.88 125.231L12.88 118.911L13.32 119.371L9.26 119.371L9.7 119.091L9.34 120.891L8.5 120.891L8.38 116.191L9.22 116.191L9.72 118.111L9.24 117.771L18.22 117.771L17.7 118.111L18.14 116.191L19 116.191L19 120.891L18.14 120.891L17.74 119.071L18.22 119.371L13.64 119.371L14.08 118.911L14.08 125.231L13.64 124.791L18.22 124.791L17.74 125.091L18.14 123.271L19 123.271L19 127.951ZM19 114.729L18.14 114.729L17.7 112.829L18.06 113.169L9.4 113.169L9.78 112.749L9.34 114.729L8.5 114.729L8.38 110.109L9.22 110.109L9.72 112.009L9.36 111.629L16.18 111.629L16.16 111.909L9.86 105.889L10.24 106.069L9.4 106.089L9.7 105.809L9.34 107.609L8.5 107.609L8.38 102.989L9.22 102.989L9.72 104.909L9.36 104.549L18.06 104.549L17.7 104.889L18.14 102.989L19 102.989L19 107.609L18.14 107.609L17.74 105.789L18.06 106.089L11.02 106.089L11.16 105.829L17.54 111.829L17.18 111.629L18.06 111.629L17.8 111.789L18.14 110.109L19 110.109L19 114.729ZM19 102.046L18.14 102.046L17.76 100.326L18.04 100.646L15.78 99.6861C15.3133 99.4861 14.98 99.2261 14.78 98.9061C14.58 98.5861 14.46 98.1861 14.42 97.7061L14.56 97.5661C14.52 98.5661 14.26 99.3461 13.78 99.9061C13.3 100.453 12.58 100.726 11.62 100.726C10.9 100.726 10.3067 100.573 9.84 100.266C9.37333 99.9461 9.02666 99.5061 8.8 98.9461C8.56 98.3728 8.44 97.6994 8.44 96.9261L8.44 91.9261L9.3 91.9261L9.72 93.7061L9.52 93.4861L18.02 93.4861L17.76 93.6661L18.14 91.9261L19 91.9261L19 96.5861L18.14 96.5861L17.78 94.9061L18.04 95.0861L14.6 95.0861L14.78 94.9061L14.78 96.3861C14.78 96.8528 14.88 97.2394 15.08 97.5461C15.2667 97.8394 15.6067 98.0861 16.1 98.2861L19 99.4261L19 102.046ZM13.96 95.0861L9.32 95.0861L9.52 94.8661L9.52 96.7661C9.52 97.4594 9.68 98.0328 10 98.4861C10.3067 98.9261 10.8467 99.1461 11.62 99.1461C12.4067 99.1461 12.96 98.9261 13.28 98.4861C13.6 98.0328 13.76 97.3528 13.76 96.4461L13.76 94.9061L13.96 95.0861Z" fill="black"/>
<path d="M29 229.5C98 229.5 239 204.5 239 9.5" stroke="#A33030" stroke-width="3"/>
</svg>
