<svg width="347" height="298" viewBox="0 0 347 298" fill="none" xmlns="http://www.w3.org/2000/svg">
<path d="M31.7817 34.2463C30.8132 33.2623 29.2303 33.2497 28.2463 34.2183L12.2107 50.0014C11.2266 50.9699 11.2141 52.5528 12.1826 53.5368C13.1511 54.5208 14.734 54.5334 15.718 53.5649L29.9719 39.5354L44.0014 53.7893C44.9699 54.7734 46.5528 54.7859 47.5368 53.8174C48.5208 52.8489 48.5334 51.266 47.5649 50.282L31.7817 34.2463ZM28 288L30.4999 288.02L32.4999 36.0198L30 36L27.5001 35.9802L25.5001 287.98L28 288Z" fill="black"/>
<path d="M345.768 267.768C346.744 266.791 346.744 265.209 345.768 264.232L329.858 248.322C328.882 247.346 327.299 247.346 326.322 248.322C325.346 249.299 325.346 250.882 326.322 251.858L340.464 266L326.322 280.142C325.346 281.118 325.346 282.701 326.322 283.678C327.299 284.654 328.882 284.654 329.858 283.678L345.768 267.768ZM0 266L0 268.5H344V266V263.5H0L0 266Z" fill="black"/>
<path d="M143.18 282.44L143.12 285.88H142.12L141.82 283.38L142.06 283.66H137.8L137.92 283.4V292.06L137.68 291.76L139.92 292.14V293H134.76V292.14L136.52 291.76L136.32 292.06V283.44L136.54 283.74L134.76 283.36V282.5L137.56 282.44H143.18ZM143.978 293V292.14L145.878 291.7L145.538 292.06V283.4L145.958 283.78L143.978 283.34V282.5L148.598 282.38V283.22L146.698 283.72L147.078 283.36V290.18L146.798 290.16L152.818 283.86L152.638 284.24L152.618 283.4L152.898 283.7L151.098 283.34V282.5L155.718 282.38V283.22L153.798 283.72L154.158 283.36V292.06L153.818 291.7L155.718 292.14V293H151.098V292.14L152.918 291.74L152.618 292.06V285.02L152.878 285.16L146.878 291.54L147.078 291.18V292.06L146.918 291.8L148.598 292.14V293H143.978ZM162.501 293.18C161.354 293.18 160.428 292.887 159.721 292.3C159.014 291.7 158.501 290.867 158.181 289.8C157.861 288.72 157.701 287.46 157.701 286.02C157.701 284.513 157.854 283.247 158.161 282.22C158.468 281.18 158.948 280.34 159.601 279.7C160.254 279.06 161.081 278.593 162.081 278.3C163.081 278.007 164.268 277.853 165.641 277.84L165.301 278.18L165.601 276.54H166.641L166.681 279.2C165.588 279.213 164.628 279.26 163.801 279.34C162.988 279.42 162.294 279.58 161.721 279.82C161.161 280.06 160.701 280.42 160.341 280.9C159.994 281.367 159.741 281.993 159.581 282.78C159.434 283.567 159.361 284.553 159.361 285.74C159.361 286.367 159.381 286.98 159.421 287.58C159.461 288.18 159.541 288.74 159.661 289.26C159.794 289.78 159.981 290.24 160.221 290.64C160.461 291.027 160.774 291.333 161.161 291.56C161.548 291.773 162.021 291.88 162.581 291.88C163.568 291.88 164.328 291.54 164.861 290.86C165.394 290.18 165.661 289.253 165.661 288.08C165.661 287.2 165.528 286.473 165.261 285.9C164.994 285.327 164.634 284.9 164.181 284.62C163.741 284.34 163.234 284.2 162.661 284.2C162.114 284.2 161.534 284.327 160.921 284.58C160.321 284.833 159.734 285.213 159.161 285.72L159.121 284.58C159.774 284.033 160.448 283.627 161.141 283.36C161.848 283.08 162.521 282.94 163.161 282.94C163.934 282.94 164.634 283.127 165.261 283.5C165.888 283.873 166.388 284.433 166.761 285.18C167.148 285.913 167.341 286.827 167.341 287.92C167.341 289.053 167.134 290.013 166.721 290.8C166.308 291.573 165.734 292.167 165.001 292.58C164.281 292.98 163.448 293.18 162.501 293.18ZM168.959 293V292.14L170.759 291.74L170.519 292.08V283.34L170.779 283.7L168.959 283.34V282.5L173.599 282.38V283.22L171.919 283.64L172.119 283.34V287.26L171.819 286.9H174.659L174.119 287.2L176.399 283.38L176.539 283.6L174.879 283.36V282.5L179.279 282.36V283.22L177.499 283.58L177.959 283.28L175.359 287.6L175.459 287.12L178.439 292.02L178.179 291.8L179.839 292.14V293H177.299L174.299 287.92L174.619 288.02H171.819L172.119 287.9V292.08L171.919 291.74L173.839 292.14V293H168.959ZM185.134 282.26C186.601 282.26 187.747 282.72 188.574 283.64C189.414 284.56 189.834 285.86 189.834 287.54C189.834 288.673 189.627 289.667 189.214 290.52C188.814 291.36 188.241 292.013 187.494 292.48C186.747 292.947 185.847 293.18 184.794 293.18C183.354 293.18 182.227 292.733 181.414 291.84C180.601 290.933 180.194 289.633 180.194 287.94C180.194 286.767 180.387 285.76 180.774 284.92C181.174 284.067 181.741 283.413 182.474 282.96C183.221 282.493 184.107 282.26 185.134 282.26ZM185.054 283.44C184.027 283.44 183.241 283.827 182.694 284.6C182.147 285.373 181.874 286.46 181.874 287.86C181.874 289.233 182.134 290.267 182.654 290.96C183.174 291.653 183.921 292 184.894 292C185.601 292 186.194 291.827 186.674 291.48C187.167 291.12 187.534 290.613 187.774 289.96C188.027 289.307 188.154 288.527 188.154 287.62C188.154 286.26 187.881 285.227 187.334 284.52C186.801 283.8 186.041 283.44 185.054 283.44ZM196.198 293.18C195.344 293.18 194.571 292.973 193.878 292.56C193.198 292.133 192.658 291.52 192.258 290.72C191.871 289.92 191.678 288.96 191.678 287.84C191.678 286.867 191.811 286.033 192.078 285.34C192.358 284.633 192.731 284.053 193.198 283.6C193.664 283.147 194.198 282.813 194.798 282.6C195.411 282.373 196.044 282.26 196.698 282.26C197.231 282.26 197.798 282.333 198.398 282.48C199.011 282.627 199.544 282.827 199.998 283.08L199.918 285.58H198.838L198.578 283.7L198.738 283.88C198.404 283.72 198.051 283.607 197.678 283.54C197.304 283.473 196.971 283.44 196.678 283.44C195.984 283.44 195.384 283.62 194.878 283.98C194.384 284.327 194.004 284.82 193.738 285.46C193.471 286.1 193.338 286.86 193.338 287.74C193.338 288.647 193.478 289.413 193.758 290.04C194.038 290.667 194.418 291.14 194.898 291.46C195.391 291.78 195.944 291.94 196.558 291.94C197.038 291.94 197.544 291.84 198.078 291.64C198.611 291.44 199.164 291.14 199.738 290.74L200.298 291.62C199.604 292.153 198.911 292.547 198.218 292.8C197.524 293.053 196.851 293.18 196.198 293.18ZM203.296 293V292.14L205.516 291.78L205.156 292.2V283.38L205.536 283.66H202.136L202.496 283.32L202.136 285.52H201.136V282.44H210.776V285.52H209.776L209.416 283.38L209.756 283.66H206.416L206.756 283.38V292.2L206.456 291.78L208.656 292.14V293H203.296ZM211.595 293V292.14L213.335 291.76L213.155 291.98V283.36L213.375 283.7L211.595 283.34V282.5L216.555 282.38V283.22L214.455 283.66L214.755 283.36V286.58L214.475 286.34H216.935C218.135 286.34 219.055 286.613 219.695 287.16C220.349 287.707 220.675 288.513 220.675 289.58C220.675 290.66 220.309 291.5 219.575 292.1C218.855 292.7 217.689 293 216.075 293H211.595ZM214.755 292.14L214.475 291.88H216.075C217.115 291.88 217.869 291.693 218.335 291.32C218.815 290.933 219.055 290.367 219.055 289.62C219.055 288.913 218.849 288.38 218.435 288.02C218.022 287.647 217.395 287.46 216.555 287.46H214.475L214.755 287.2V292.14Z" fill="black"/>
<path d="M19.18 190.56C19.18 191.413 18.9733 192.187 18.56 192.88C18.1333 193.56 17.52 194.1 16.72 194.5C15.92 194.887 14.96 195.08 13.84 195.08C12.8667 195.08 12.0333 194.947 11.34 194.68C10.6333 194.4 10.0533 194.027 9.6 193.56C9.14667 193.093 8.81333 192.56 8.6 191.96C8.37333 191.347 8.26 190.713 8.26 190.06C8.26 189.527 8.33333 188.96 8.48 188.36C8.62667 187.747 8.82667 187.213 9.08 186.76L11.58 186.84L11.58 187.92L9.7 188.18L9.88 188.02C9.72 188.353 9.60667 188.707 9.54 189.08C9.47333 189.453 9.44 189.787 9.44 190.08C9.44 190.773 9.62 191.373 9.98 191.88C10.3267 192.373 10.82 192.753 11.46 193.02C12.1 193.287 12.86 193.42 13.74 193.42C14.6467 193.42 15.4133 193.28 16.04 193C16.6667 192.72 17.14 192.34 17.46 191.86C17.78 191.367 17.94 190.813 17.94 190.2C17.94 189.72 17.84 189.213 17.64 188.68C17.44 188.147 17.14 187.593 16.74 187.02L17.62 186.46C18.1533 187.153 18.5467 187.847 18.8 188.54C19.0533 189.233 19.18 189.907 19.18 190.56ZM19.16 184.406C19.16 184.593 19.14 184.786 19.1 184.986C19.0733 185.186 19.0267 185.406 18.96 185.646L17.66 185.406C17.6733 185.299 17.6867 185.199 17.7 185.106C17.7133 184.999 17.72 184.899 17.72 184.806C17.72 184.046 17.3867 183.486 16.72 183.126C16.04 182.753 15.0667 182.506 13.8 182.386C12.5333 182.253 11.0133 182.179 9.24 182.166L9.72 181.746L9.3 183.906L8.44 183.906L8.44 174.586L9.3 174.586L9.74 176.506L9.24 176.146L17.98 176.146L17.76 176.326L18.14 174.586L19 174.586L19 179.326L18.14 179.326L17.76 177.586L17.98 177.746L9.2 177.746L9.66 177.466L9.66 181.406L9.2 180.906C10.76 180.919 12.1533 180.979 13.38 181.086C14.6067 181.179 15.6533 181.353 16.52 181.606C17.3733 181.859 18.0267 182.213 18.48 182.666C18.9333 183.119 19.16 183.699 19.16 184.406ZM8.26 167.972C8.26 166.505 8.72 165.358 9.64 164.532C10.56 163.692 11.86 163.272 13.54 163.272C14.6733 163.272 15.6667 163.478 16.52 163.892C17.36 164.292 18.0133 164.865 18.48 165.612C18.9467 166.358 19.18 167.258 19.18 168.312C19.18 169.752 18.7333 170.878 17.84 171.692C16.9333 172.505 15.6333 172.912 13.94 172.912C12.7667 172.912 11.76 172.718 10.92 172.332C10.0667 171.932 9.41333 171.365 8.96 170.632C8.49333 169.885 8.26 168.998 8.26 167.972ZM9.44 168.052C9.44 169.078 9.82667 169.865 10.6 170.412C11.3733 170.958 12.46 171.232 13.86 171.232C15.2333 171.232 16.2667 170.972 16.96 170.452C17.6533 169.932 18 169.185 18 168.212C18 167.505 17.8267 166.912 17.48 166.432C17.12 165.938 16.6133 165.572 15.96 165.332C15.3067 165.078 14.5267 164.952 13.62 164.952C12.26 164.952 11.2267 165.225 10.52 165.772C9.8 166.305 9.44 167.065 9.44 168.052ZM19 162.851L18.14 162.851L17.8 161.111L18.02 161.431L13.16 158.411L13.64 158.491L9.28 160.951L9.58 160.551L9.34 162.351L8.5 162.351L8.38 157.911L9.22 157.911L9.6 159.571L9.38 159.431L13.26 157.331L13.04 157.691L13.04 155.151L13.32 155.451L9.34 155.451L9.7 155.191L9.34 156.951L8.5 156.951L8.38 152.491L9.22 152.491L9.64 154.211L9.34 153.991L13.32 153.991L13.04 154.291L13.04 151.771L13.26 152.151L9.38 149.911L9.6 149.771L9.36 151.431L8.5 151.431L8.36 147.031L9.22 147.031L9.58 148.811L9.28 148.411L13.66 150.971L13.18 150.991L18.02 147.831L17.8 148.131L18.14 146.411L19 146.411L19 148.991L13.98 152.151L14.16 151.831L14.16 154.291L13.96 153.991L18.08 153.991L17.74 154.211L18.14 152.271L19 152.271L19 156.991L18.14 156.991L17.74 155.211L18.08 155.451L13.96 155.451L14.16 155.151L14.16 157.631L13.98 157.271L19 160.291L19 162.851ZM19 145.69L18.14 145.69L17.7 143.79L18.22 144.13L9.26 144.13L9.78 143.71L9.34 145.69L8.5 145.69L8.38 141.01L9.22 141.01L9.72 142.91L9.24 142.53L13.32 142.53L12.88 142.97L12.88 136.65L13.32 137.11L9.26 137.11L9.7 136.83L9.34 138.63L8.5 138.63L8.38 133.93L9.22 133.93L9.72 135.85L9.24 135.51L18.22 135.51L17.7 135.85L18.14 133.93L19 133.93L19 138.63L18.14 138.63L17.74 136.81L18.22 137.11L13.64 137.11L14.08 136.65L14.08 142.97L13.64 142.53L18.22 142.53L17.74 142.83L18.14 141.01L19 141.01L19 145.69ZM8.26 127.327C8.26 125.86 8.72 124.714 9.64 123.887C10.56 123.047 11.86 122.627 13.54 122.627C14.6733 122.627 15.6667 122.834 16.52 123.247C17.36 123.647 18.0133 124.22 18.48 124.967C18.9467 125.714 19.18 126.614 19.18 127.667C19.18 129.107 18.7333 130.234 17.84 131.047C16.9333 131.86 15.6333 132.267 13.94 132.267C12.7667 132.267 11.76 132.074 10.92 131.687C10.0667 131.287 9.41333 130.72 8.96 129.987C8.49333 129.24 8.26 128.354 8.26 127.327ZM9.44 127.407C9.44 128.434 9.82666 129.22 10.6 129.767C11.3733 130.314 12.46 130.587 13.86 130.587C15.2333 130.587 16.2667 130.327 16.96 129.807C17.6533 129.287 18 128.54 18 127.567C18 126.86 17.8267 126.267 17.48 125.787C17.12 125.294 16.6133 124.927 15.96 124.687C15.3067 124.434 14.5267 124.307 13.62 124.307C12.26 124.307 11.2267 124.58 10.52 125.127C9.8 125.66 9.44 126.42 9.44 127.407ZM19.18 116.263C19.18 117.116 18.9733 117.89 18.56 118.583C18.1333 119.263 17.52 119.803 16.72 120.203C15.92 120.59 14.96 120.783 13.84 120.783C12.8667 120.783 12.0333 120.65 11.34 120.383C10.6333 120.103 10.0533 119.73 9.6 119.263C9.14666 118.796 8.81333 118.263 8.6 117.663C8.37333 117.05 8.26 116.416 8.26 115.763C8.26 115.23 8.33333 114.663 8.48 114.063C8.62666 113.45 8.82666 112.916 9.08 112.463L11.58 112.543L11.58 113.623L9.7 113.883L9.88 113.723C9.72 114.056 9.60666 114.41 9.54 114.783C9.47333 115.156 9.44 115.49 9.44 115.783C9.44 116.476 9.62 117.076 9.98 117.583C10.3267 118.076 10.82 118.456 11.46 118.723C12.1 118.99 12.86 119.123 13.74 119.123C14.6467 119.123 15.4133 118.983 16.04 118.703C16.6667 118.423 17.14 118.043 17.46 117.563C17.78 117.07 17.94 116.516 17.94 115.903C17.94 115.423 17.84 114.916 17.64 114.383C17.44 113.85 17.14 113.296 16.74 112.723L17.62 112.163C18.1533 112.856 18.5467 113.55 18.8 114.243C19.0533 114.936 19.18 115.61 19.18 116.263ZM19 109.165L18.14 109.165L17.78 106.945L18.2 107.305L9.38 107.305L9.66 106.925L9.66 110.325L9.32 109.965L11.52 110.325L11.52 111.325L8.44 111.325L8.44 101.685L11.52 101.685L11.52 102.685L9.38 103.045L9.66 102.705L9.66 106.045L9.38 105.705L18.2 105.705L17.78 106.005L18.14 103.805L19 103.805L19 109.165ZM19 100.865L18.14 100.865L17.76 99.1255L17.98 99.3055L9.36 99.3055L9.7 99.0855L9.34 100.865L8.5 100.865L8.38 95.9055L9.22 95.9055L9.66 98.0055L9.36 97.7055L12.58 97.7055L12.34 97.9855L12.34 95.5255C12.34 94.3255 12.6133 93.4055 13.16 92.7655C13.7067 92.1121 14.5133 91.7855 15.58 91.7855C16.66 91.7855 17.5 92.1521 18.1 92.8855C18.7 93.6055 19 94.7721 19 96.3855L19 100.865ZM18.14 97.7055L17.88 97.9855L17.88 96.3855C17.88 95.3455 17.6933 94.5921 17.32 94.1255C16.9333 93.6455 16.3667 93.4055 15.62 93.4055C14.9133 93.4055 14.38 93.6121 14.02 94.0255C13.6467 94.4388 13.46 95.0655 13.46 95.9055L13.46 97.9855L13.2 97.7055L18.14 97.7055Z" fill="black"/>
<path d="M29 263C98 263 239 238 239 43" stroke="#A33030" stroke-width="3"/>
<path d="M227.523 14V13.355L228.813 13.07L228.573 13.28L229.293 11.585C229.443 11.235 229.638 10.985 229.878 10.835C230.118 10.685 230.418 10.595 230.778 10.565L230.883 10.67C230.133 10.64 229.548 10.445 229.128 10.085C228.718 9.725 228.513 9.185 228.513 8.465C228.513 7.925 228.628 7.48 228.858 7.13C229.098 6.78 229.428 6.52 229.848 6.35C230.278 6.17 230.783 6.08 231.363 6.08H235.113V6.725L233.778 7.04L233.943 6.89V13.265L233.808 13.07L235.113 13.355V14H231.618V13.355L232.878 13.085L232.743 13.28V10.7L232.878 10.835H231.768C231.418 10.835 231.128 10.91 230.898 11.06C230.678 11.2 230.493 11.455 230.343 11.825L229.488 14H227.523ZM232.743 10.22V6.74L232.908 6.89H231.483C230.963 6.89 230.533 7.01 230.193 7.25C229.863 7.48 229.698 7.885 229.698 8.465C229.698 9.055 229.863 9.47 230.193 9.71C230.533 9.95 231.043 10.07 231.723 10.07H232.878L232.743 10.22ZM238.859 14.135C238.399 14.135 237.939 14.08 237.479 13.97C237.019 13.86 236.594 13.695 236.204 13.475L236.489 12.695C236.839 12.885 237.214 13.035 237.614 13.145C238.024 13.245 238.419 13.295 238.799 13.295C239.189 13.295 239.549 13.24 239.879 13.13C240.219 13.02 240.489 12.85 240.689 12.62C240.889 12.39 240.989 12.09 240.989 11.72C240.989 11.44 240.919 11.19 240.779 10.97C240.639 10.75 240.404 10.575 240.074 10.445C239.754 10.315 239.319 10.25 238.769 10.25H237.779V9.5H238.769C239.489 9.5 240.014 9.375 240.344 9.125C240.674 8.865 240.839 8.52 240.839 8.09C240.839 7.61 240.664 7.27 240.314 7.07C239.974 6.87 239.544 6.77 239.024 6.77C238.734 6.77 238.434 6.795 238.124 6.845C237.814 6.895 237.499 6.96 237.179 7.04L237.464 6.74L237.269 8.18H236.474L236.414 6.395C236.894 6.255 237.369 6.145 237.839 6.065C238.319 5.985 238.779 5.945 239.219 5.945C239.749 5.945 240.229 6.015 240.659 6.155C241.089 6.285 241.424 6.5 241.664 6.8C241.914 7.09 242.039 7.47 242.039 7.94C242.039 8.52 241.849 8.97 241.469 9.29C241.099 9.6 240.514 9.8 239.714 9.89L239.684 9.785C240.574 9.825 241.219 10.025 241.619 10.385C242.029 10.735 242.234 11.195 242.234 11.765C242.234 12.305 242.074 12.755 241.754 13.115C241.434 13.465 241.019 13.725 240.509 13.895C239.999 14.055 239.449 14.135 238.859 14.135ZM253.1 6.77V13.235L252.965 13.07L254.27 13.355V14H250.715V13.355L252.02 13.07L251.9 13.235V6.77L252.05 7.025L250.715 6.755V6.125L254.27 6.035V6.665L252.86 6.995L253.1 6.77ZM243.455 14V13.355L244.76 13.07L244.625 13.235V6.77L244.79 7.025L243.455 6.755V6.125L247.175 6.035V6.665L245.6 6.995L245.825 6.77V9.185L245.615 9.005H247.46C248.36 9.005 249.05 9.21 249.53 9.62C250.01 10.03 250.25 10.635 250.25 11.435C250.25 12.245 249.98 12.875 249.44 13.325C248.9 13.775 248.025 14 246.815 14H243.455ZM245.825 13.355L245.615 13.16H246.815C247.575 13.16 248.13 13.02 248.48 12.74C248.83 12.45 249.005 12.025 249.005 11.465C249.005 10.935 248.85 10.535 248.54 10.265C248.24 9.985 247.785 9.845 247.175 9.845H245.615L245.825 9.65V13.355ZM255.379 14V13.355L256.729 13.055L256.549 13.31V6.755L256.744 7.025L255.379 6.755V6.125L258.859 6.035V6.665L257.599 6.98L257.749 6.755V9.695L257.524 9.425H259.654L259.249 9.65L260.959 6.785L261.064 6.95L259.819 6.77V6.125L263.119 6.02V6.665L261.784 6.935L262.129 6.71L260.179 9.95L260.254 9.59L262.489 13.265L262.294 13.1L263.539 13.355V14H261.634L259.384 10.19L259.624 10.265H257.524L257.749 10.175V13.31L257.599 13.055L259.039 13.355V14H255.379ZM172.857 32V31.355L174.282 31.025L174.027 31.415V24.65L174.342 25.085L172.857 24.755V24.125L175.152 24.08H181.602V24.725L180.162 25.085L180.432 24.665V31.415L180.177 31.025L181.602 31.355V32H178.107V31.355L179.457 31.055L179.232 31.415V24.65L179.562 24.995L174.897 24.98L175.227 24.65V31.415L175.002 31.055L176.352 31.355V32H172.857ZM182.565 35.45V34.805L183.93 34.49L183.735 34.715V24.86L183.915 25.055L182.565 24.77V24.125L184.665 24.02L184.815 25.325L184.68 25.235C185.14 24.805 185.6 24.485 186.06 24.275C186.52 24.055 186.975 23.945 187.425 23.945C187.985 23.945 188.485 24.1 188.925 24.41C189.375 24.72 189.73 25.17 189.99 25.76C190.25 26.34 190.38 27.055 190.38 27.905C190.38 28.825 190.22 29.6 189.9 30.23C189.59 30.86 189.15 31.34 188.58 31.67C188.01 31.99 187.34 32.15 186.57 32.15C186.29 32.15 186 32.125 185.7 32.075C185.4 32.025 185.085 31.96 184.755 31.88L184.935 31.715V34.715L184.77 34.505L186.315 34.805V35.45H182.565ZM186.435 31.25C187.315 31.25 187.985 30.965 188.445 30.395C188.905 29.825 189.135 29.035 189.135 28.025C189.135 27.365 189.04 26.8 188.85 26.33C188.67 25.86 188.42 25.5 188.1 25.25C187.78 24.99 187.415 24.86 187.005 24.86C186.655 24.86 186.29 24.955 185.91 25.145C185.54 25.325 185.165 25.605 184.785 25.985L184.935 25.61V31.235L184.77 30.965C185.38 31.155 185.935 31.25 186.435 31.25ZM195.506 23.945C196.606 23.945 197.466 24.29 198.086 24.98C198.716 25.67 199.031 26.645 199.031 27.905C199.031 28.755 198.876 29.5 198.566 30.14C198.266 30.77 197.836 31.26 197.276 31.61C196.716 31.96 196.041 32.135 195.251 32.135C194.171 32.135 193.326 31.8 192.716 31.13C192.106 30.45 191.801 29.475 191.801 28.205C191.801 27.325 191.946 26.57 192.236 25.94C192.536 25.3 192.961 24.81 193.511 24.47C194.071 24.12 194.736 23.945 195.506 23.945ZM195.446 24.83C194.676 24.83 194.086 25.12 193.676 25.7C193.266 26.28 193.061 27.095 193.061 28.145C193.061 29.175 193.256 29.95 193.646 30.47C194.036 30.99 194.596 31.25 195.326 31.25C195.856 31.25 196.301 31.12 196.661 30.86C197.031 30.59 197.306 30.21 197.486 29.72C197.676 29.23 197.771 28.645 197.771 27.965C197.771 26.945 197.566 26.17 197.156 25.64C196.756 25.1 196.186 24.83 195.446 24.83ZM206.609 24.08L206.564 26.66H205.814L205.589 24.785L205.769 24.995H202.574L202.664 24.8V31.295L202.484 31.07L204.164 31.355V32H200.294V31.355L201.614 31.07L201.464 31.295V24.83L201.629 25.055L200.294 24.77V24.125L202.394 24.08H206.609ZM207.057 35.45V34.805L208.422 34.49L208.227 34.715V24.86L208.407 25.055L207.057 24.77V24.125L209.157 24.02L209.307 25.325L209.172 25.235C209.632 24.805 210.092 24.485 210.552 24.275C211.012 24.055 211.467 23.945 211.917 23.945C212.477 23.945 212.977 24.1 213.417 24.41C213.867 24.72 214.222 25.17 214.482 25.76C214.742 26.34 214.872 27.055 214.872 27.905C214.872 28.825 214.712 29.6 214.392 30.23C214.082 30.86 213.642 31.34 213.072 31.67C212.502 31.99 211.832 32.15 211.062 32.15C210.782 32.15 210.492 32.125 210.192 32.075C209.892 32.025 209.577 31.96 209.247 31.88L209.427 31.715V34.715L209.262 34.505L210.807 34.805V35.45H207.057ZM210.927 31.25C211.807 31.25 212.477 30.965 212.937 30.395C213.397 29.825 213.627 29.035 213.627 28.025C213.627 27.365 213.532 26.8 213.342 26.33C213.162 25.86 212.912 25.5 212.592 25.25C212.272 24.99 211.907 24.86 211.497 24.86C211.147 24.86 210.782 24.955 210.402 25.145C210.032 25.325 209.657 25.605 209.277 25.985L209.427 25.61V31.235L209.262 30.965C209.872 31.155 210.427 31.25 210.927 31.25ZM222.323 31.325L222.128 31.055L223.508 31.325V31.985L221.408 32.075L221.228 30.635L221.333 30.68C220.893 31.16 220.418 31.525 219.908 31.775C219.398 32.015 218.903 32.135 218.423 32.135C217.843 32.135 217.353 31.95 216.953 31.58C216.553 31.21 216.353 30.65 216.353 29.9C216.353 29.31 216.478 28.86 216.728 28.55C216.978 28.23 217.323 28.005 217.763 27.875C218.203 27.745 218.713 27.68 219.293 27.68H221.258L221.123 27.83V26.39C221.123 25.84 220.978 25.45 220.688 25.22C220.398 24.98 219.998 24.86 219.488 24.86C219.218 24.86 218.928 24.89 218.618 24.95C218.318 25 217.998 25.085 217.658 25.205L217.838 25.01L217.688 26.375H216.893L216.773 24.515C217.343 24.325 217.878 24.185 218.378 24.095C218.878 23.995 219.338 23.945 219.758 23.945C220.558 23.945 221.183 24.125 221.633 24.485C222.093 24.835 222.323 25.4 222.323 26.18V31.325ZM217.568 29.795C217.568 30.285 217.683 30.645 217.913 30.875C218.153 31.105 218.453 31.22 218.813 31.22C219.163 31.22 219.548 31.115 219.968 30.905C220.398 30.685 220.813 30.39 221.213 30.02L221.123 30.335V28.325L221.258 28.46H219.473C218.763 28.46 218.268 28.57 217.988 28.79C217.708 29 217.568 29.335 217.568 29.795ZM226.281 25.07H226.491V31.34L226.341 31.07L227.616 31.355V32H224.361V31.355L225.711 31.055L225.531 31.34V24.755L225.756 25.07L224.361 24.755V24.125L226.881 24.035L229.701 29.9H229.191L232.056 24.125L234.561 24.035V24.665L233.166 25.04L233.376 24.71V31.325L233.211 31.055L234.561 31.355V32H231.216V31.355L232.491 31.07L232.311 31.28V25.04H232.521L229.686 30.74L229.086 30.785L226.281 25.07ZM237.575 25.07H237.785V31.34L237.635 31.07L238.91 31.355V32H235.655V31.355L237.005 31.055L236.825 31.34V24.755L237.05 25.07L235.655 24.755V24.125L238.175 24.035L240.995 29.9H240.485L243.35 24.125L245.855 24.035V24.665L244.46 25.04L244.67 24.71V31.325L244.505 31.055L245.855 31.355V32H242.51V31.355L243.785 31.07L243.605 31.28V25.04H243.815L240.98 30.74L240.38 30.785L237.575 25.07ZM246.949 32V31.355L248.374 31.025L248.119 31.295V24.8L248.434 25.085L246.949 24.755V24.125L250.414 24.035V24.665L248.989 25.04L249.274 24.77V29.885L249.064 29.87L253.579 25.145L253.444 25.43L253.429 24.8L253.639 25.025L252.289 24.755V24.125L255.754 24.035V24.665L254.314 25.04L254.584 24.77V31.295L254.329 31.025L255.754 31.355V32H252.289V31.355L253.654 31.055L253.429 31.295V26.015L253.624 26.12L249.124 30.905L249.274 30.635V31.295L249.154 31.1L250.414 31.355V32H246.949ZM256.716 35.45V34.805L258.081 34.49L257.886 34.715V24.86L258.066 25.055L256.716 24.77V24.125L258.816 24.02L258.966 25.325L258.831 25.235C259.291 24.805 259.751 24.485 260.211 24.275C260.671 24.055 261.126 23.945 261.576 23.945C262.136 23.945 262.636 24.1 263.076 24.41C263.526 24.72 263.881 25.17 264.141 25.76C264.401 26.34 264.531 27.055 264.531 27.905C264.531 28.825 264.371 29.6 264.051 30.23C263.741 30.86 263.301 31.34 262.731 31.67C262.161 31.99 261.491 32.15 260.721 32.15C260.441 32.15 260.151 32.125 259.851 32.075C259.551 32.025 259.236 31.96 258.906 31.88L259.086 31.715V34.715L258.921 34.505L260.466 34.805V35.45H256.716ZM260.586 31.25C261.466 31.25 262.136 30.965 262.596 30.395C263.056 29.825 263.286 29.035 263.286 28.025C263.286 27.365 263.191 26.8 263.001 26.33C262.821 25.86 262.571 25.5 262.251 25.25C261.931 24.99 261.566 24.86 261.156 24.86C260.806 24.86 260.441 24.955 260.061 25.145C259.691 25.325 259.316 25.605 258.936 25.985L259.086 25.61V31.235L258.921 30.965C259.531 31.155 260.086 31.25 260.586 31.25ZM269.656 23.945C270.756 23.945 271.616 24.29 272.236 24.98C272.866 25.67 273.181 26.645 273.181 27.905C273.181 28.755 273.026 29.5 272.716 30.14C272.416 30.77 271.986 31.26 271.426 31.61C270.866 31.96 270.191 32.135 269.401 32.135C268.321 32.135 267.476 31.8 266.866 31.13C266.256 30.45 265.951 29.475 265.951 28.205C265.951 27.325 266.096 26.57 266.386 25.94C266.686 25.3 267.111 24.81 267.661 24.47C268.221 24.12 268.886 23.945 269.656 23.945ZM269.596 24.83C268.826 24.83 268.236 25.12 267.826 25.7C267.416 26.28 267.211 27.095 267.211 28.145C267.211 29.175 267.406 29.95 267.796 30.47C268.186 30.99 268.746 31.25 269.476 31.25C270.006 31.25 270.451 31.12 270.811 30.86C271.181 30.59 271.456 30.21 271.636 29.72C271.826 29.23 271.921 28.645 271.921 27.965C271.921 26.945 271.716 26.17 271.306 25.64C270.906 25.1 270.336 24.83 269.596 24.83ZM276.814 24.08H278.314C278.954 24.08 279.494 24.145 279.934 24.275C280.374 24.405 280.704 24.61 280.924 24.89C281.154 25.16 281.269 25.52 281.269 25.97C281.269 26.38 281.169 26.72 280.969 26.99C280.779 27.26 280.494 27.47 280.114 27.62C279.734 27.76 279.254 27.855 278.674 27.905L278.734 27.785C279.184 27.785 279.584 27.825 279.934 27.905C280.284 27.985 280.584 28.11 280.834 28.28C281.094 28.45 281.289 28.665 281.419 28.925C281.559 29.175 281.629 29.485 281.629 29.855C281.629 30.575 281.349 31.115 280.789 31.475C280.239 31.825 279.374 32 278.194 32H274.444V31.355L275.749 31.07L275.614 31.235V24.905L275.734 25.04L274.444 24.77V24.125L276.814 24.08ZM278.074 24.905H276.604L276.814 24.695V27.71L276.604 27.53H277.699C278.539 27.53 279.144 27.415 279.514 27.185C279.884 26.955 280.069 26.61 280.069 26.15C280.069 25.7 279.904 25.38 279.574 25.19C279.244 25 278.744 24.905 278.074 24.905ZM278.059 31.16C278.869 31.16 279.454 31.05 279.814 30.83C280.184 30.61 280.369 30.245 280.369 29.735C280.369 29.245 280.204 28.87 279.874 28.61C279.554 28.35 279.049 28.22 278.359 28.22H276.604L276.814 28.025V31.355L276.604 31.16H278.059ZM289.09 31.325L288.895 31.055L290.275 31.325V31.985L288.175 32.075L287.995 30.635L288.1 30.68C287.66 31.16 287.185 31.525 286.675 31.775C286.165 32.015 285.67 32.135 285.19 32.135C284.61 32.135 284.12 31.95 283.72 31.58C283.32 31.21 283.12 30.65 283.12 29.9C283.12 29.31 283.245 28.86 283.495 28.55C283.745 28.23 284.09 28.005 284.53 27.875C284.97 27.745 285.48 27.68 286.06 27.68H288.025L287.89 27.83V26.39C287.89 25.84 287.745 25.45 287.455 25.22C287.165 24.98 286.765 24.86 286.255 24.86C285.985 24.86 285.695 24.89 285.385 24.95C285.085 25 284.765 25.085 284.425 25.205L284.605 25.01L284.455 26.375H283.66L283.54 24.515C284.11 24.325 284.645 24.185 285.145 24.095C285.645 23.995 286.105 23.945 286.525 23.945C287.325 23.945 287.95 24.125 288.4 24.485C288.86 24.835 289.09 25.4 289.09 26.18V31.325ZM284.335 29.795C284.335 30.285 284.45 30.645 284.68 30.875C284.92 31.105 285.22 31.22 285.58 31.22C285.93 31.22 286.315 31.115 286.735 30.905C287.165 30.685 287.58 30.39 287.98 30.02L287.89 30.335V28.325L288.025 28.46H286.24C285.53 28.46 285.035 28.57 284.755 28.79C284.475 29 284.335 29.335 284.335 29.795ZM291.128 32V31.355L292.553 31.025L292.298 31.415V24.695L292.613 25.085L291.128 24.755V24.125L294.638 24.035V24.665L293.213 25.04L293.498 24.68V27.74L293.168 27.41H297.908L297.563 27.74V24.695L297.773 25.025L296.423 24.755V24.125L299.948 24.035V24.665L298.508 25.04L298.763 24.68V31.415L298.508 31.025L299.948 31.355V32H296.423V31.355L297.788 31.055L297.563 31.415V27.98L297.908 28.31H293.168L293.498 27.98V31.415L293.273 31.055L294.638 31.355V32H291.128ZM301.045 32V31.355L302.47 31.025L302.215 31.295V24.8L302.53 25.085L301.045 24.755V24.125L304.51 24.035V24.665L303.085 25.04L303.37 24.77V29.885L303.16 29.87L307.675 25.145L307.54 25.43L307.525 24.8L307.735 25.025L306.385 24.755V24.125L309.85 24.035V24.665L308.41 25.04L308.68 24.77V31.295L308.425 31.025L309.85 31.355V32H306.385V31.355L307.75 31.055L307.525 31.295V26.015L307.72 26.12L303.22 30.905L303.37 30.635V31.295L303.25 31.1L304.51 31.355V32H301.045ZM310.557 32V31.355L311.847 31.07L311.607 31.28L312.327 29.585C312.477 29.235 312.672 28.985 312.912 28.835C313.152 28.685 313.452 28.595 313.812 28.565L313.917 28.67C313.167 28.64 312.582 28.445 312.162 28.085C311.752 27.725 311.547 27.185 311.547 26.465C311.547 25.925 311.662 25.48 311.892 25.13C312.132 24.78 312.462 24.52 312.882 24.35C313.312 24.17 313.817 24.08 314.397 24.08H318.147V24.725L316.812 25.04L316.977 24.89V31.265L316.842 31.07L318.147 31.355V32H314.652V31.355L315.912 31.085L315.777 31.28V28.7L315.912 28.835H314.802C314.452 28.835 314.162 28.91 313.932 29.06C313.712 29.2 313.527 29.455 313.377 29.825L312.522 32H310.557ZM315.777 28.22V24.74L315.942 24.89H314.517C313.997 24.89 313.567 25.01 313.227 25.25C312.897 25.48 312.732 25.885 312.732 26.465C312.732 27.055 312.897 27.47 313.227 27.71C313.567 27.95 314.077 28.07 314.757 28.07H315.912L315.777 28.22Z" fill="black"/>
<line x1="249.5" y1="43" x2="249.5" y2="293" stroke="black"/>
</svg>
